<svg xmlns="http://www.w3.org/2000/svg" width="1440" height="780" viewBox="0 0 1440 780" preserveAspectRatio="xMidYMax slice">
<defs>
<linearGradient id="sky" x1="0" y1="0" x2="0" y2="1"><stop offset="0" stop-color="#140B09"></stop><stop offset="0.45" stop-color="#3E170F"></stop><stop offset="0.72" stop-color="#9A3F1C"></stop><stop offset="0.82" stop-color="#E08A3A"></stop><stop offset="1" stop-color="#6A2A14"></stop></linearGradient>
<radialGradient id="sun" cx="0.5" cy="0.5" r="0.5"><stop offset="0" stop-color="#FFE0A0"></stop><stop offset="0.35" stop-color="#F5B060" stop-opacity="0.8"></stop><stop offset="1" stop-color="#E08A3A" stop-opacity="0"></stop></radialGradient>
<linearGradient id="fade" x1="0" y1="0" x2="0" y2="1"><stop offset="0" stop-color="#0E0B08" stop-opacity="0"></stop><stop offset="1" stop-color="#0E0B08"></stop></linearGradient>
<linearGradient id="left" x1="0" y1="0" x2="1" y2="0"><stop offset="0" stop-color="#0E0B08" stop-opacity="0.85"></stop><stop offset="0.5" stop-color="#0E0B08" stop-opacity="0.1"></stop><stop offset="1" stop-color="#0E0B08" stop-opacity="0"></stop></linearGradient>
</defs>
<rect width="1440" height="780" fill="url(#sky)"></rect>
<circle cx="990" cy="540" r="260" fill="url(#sun)"></circle>
<circle cx="990" cy="545" r="62" fill="#FFE3AA" fill-opacity="0.9"></circle>
<path d="M0 560 C 180 520 360 540 520 555 S 820 520 1000 540 1300 520 1440 540 V780 H0z" fill="#5A2414" fill-opacity="0.85"></path>
<path d="M770 600 V480 Q 980 440 1200 480 V600z" fill="#2A120B"></path>
<rect x="792" y="478" width="12" height="30" rx="6.0" fill="#C45A24" fill-opacity="0.55"></rect><rect x="816" y="478" width="12" height="30" rx="6.0" fill="#C45A24" fill-opacity="0.55"></rect><rect x="840" y="478" width="12" height="30" rx="6.0" fill="#C45A24" fill-opacity="0.55"></rect><rect x="864" y="478" width="12" height="30" rx="6.0" fill="#C45A24" fill-opacity="0.55"></rect><rect x="888" y="478" width="12" height="30" rx="6.0" fill="#C45A24" fill-opacity="0.55"></rect><rect x="912" y="478" width="12" height="30" rx="6.0" fill="#C45A24" fill-opacity="0.55"></rect><rect x="936" y="478" width="12" height="30" rx="6.0" fill="#C45A24" fill-opacity="0.55"></rect><rect x="960" y="478" width="12" height="30" rx="6.0" fill="#C45A24" fill-opacity="0.55"></rect><rect x="984" y="478" width="12" height="30" rx="6.0" fill="#C45A24" fill-opacity="0.55"></rect><rect x="1008" y="478" width="12" height="30" rx="6.0" fill="#C45A24" fill-opacity="0.55"></rect><rect x="1032" y="478" width="12" height="30" rx="6.0" fill="#C45A24" fill-opacity="0.55"></rect><rect x="1056" y="478" width="12" height="30" rx="6.0" fill="#C45A24" fill-opacity="0.55"></rect><rect x="1080" y="478" width="12" height="30" rx="6.0" fill="#C45A24" fill-opacity="0.55"></rect><rect x="1104" y="478" width="12" height="30" rx="6.0" fill="#C45A24" fill-opacity="0.55"></rect><rect x="1128" y="478" width="12" height="30" rx="6.0" fill="#C45A24" fill-opacity="0.55"></rect><rect x="1152" y="478" width="12" height="30" rx="6.0" fill="#C45A24" fill-opacity="0.55"></rect><rect x="784" y="522" width="13" height="32" rx="6.5" fill="#C45A24" fill-opacity="0.43"></rect><rect x="808" y="522" width="13" height="32" rx="6.5" fill="#C45A24" fill-opacity="0.43"></rect><rect x="832" y="522" width="13" height="32" rx="6.5" fill="#C45A24" fill-opacity="0.43"></rect><rect x="856" y="522" width="13" height="32" rx="6.5" fill="#C45A24" fill-opacity="0.43"></rect><rect x="880" y="522" width="13" height="32" rx="6.5" fill="#C45A24" fill-opacity="0.43"></rect><rect x="904" y="522" width="13" height="32" rx="6.5" fill="#C45A24" fill-opacity="0.43"></rect><rect x="928" y="522" width="13" height="32" rx="6.5" fill="#C45A24" fill-opacity="0.43"></rect><rect x="952" y="522" width="13" height="32" rx="6.5" fill="#C45A24" fill-opacity="0.43"></rect><rect x="976" y="522" width="13" height="32" rx="6.5" fill="#C45A24" fill-opacity="0.43"></rect><rect x="1000" y="522" width="13" height="32" rx="6.5" fill="#C45A24" fill-opacity="0.43"></rect><rect x="1024" y="522" width="13" height="32" rx="6.5" fill="#C45A24" fill-opacity="0.43"></rect><rect x="1048" y="522" width="13" height="32" rx="6.5" fill="#C45A24" fill-opacity="0.43"></rect><rect x="1072" y="522" width="13" height="32" rx="6.5" fill="#C45A24" fill-opacity="0.43"></rect><rect x="1096" y="522" width="13" height="32" rx="6.5" fill="#C45A24" fill-opacity="0.43"></rect><rect x="1120" y="522" width="13" height="32" rx="6.5" fill="#C45A24" fill-opacity="0.43"></rect><rect x="1144" y="522" width="13" height="32" rx="6.5" fill="#C45A24" fill-opacity="0.43"></rect><rect x="1168" y="522" width="13" height="32" rx="6.5" fill="#C45A24" fill-opacity="0.43"></rect><rect x="776" y="566" width="14" height="30" rx="7.0" fill="#C45A24" fill-opacity="0.31"></rect><rect x="800" y="566" width="14" height="30" rx="7.0" fill="#C45A24" fill-opacity="0.31"></rect><rect x="824" y="566" width="14" height="30" rx="7.0" fill="#C45A24" fill-opacity="0.31"></rect><rect x="848" y="566" width="14" height="30" rx="7.0" fill="#C45A24" fill-opacity="0.31"></rect><rect x="872" y="566" width="14" height="30" rx="7.0" fill="#C45A24" fill-opacity="0.31"></rect><rect x="896" y="566" width="14" height="30" rx="7.0" fill="#C45A24" fill-opacity="0.31"></rect><rect x="920" y="566" width="14" height="30" rx="7.0" fill="#C45A24" fill-opacity="0.31"></rect><rect x="944" y="566" width="14" height="30" rx="7.0" fill="#C45A24" fill-opacity="0.31"></rect><rect x="968" y="566" width="14" height="30" rx="7.0" fill="#C45A24" fill-opacity="0.31"></rect><rect x="992" y="566" width="14" height="30" rx="7.0" fill="#C45A24" fill-opacity="0.31"></rect><rect x="1016" y="566" width="14" height="30" rx="7.0" fill="#C45A24" fill-opacity="0.31"></rect><rect x="1040" y="566" width="14" height="30" rx="7.0" fill="#C45A24" fill-opacity="0.31"></rect><rect x="1064" y="566" width="14" height="30" rx="7.0" fill="#C45A24" fill-opacity="0.31"></rect><rect x="1088" y="566" width="14" height="30" rx="7.0" fill="#C45A24" fill-opacity="0.31"></rect><rect x="1112" y="566" width="14" height="30" rx="7.0" fill="#C45A24" fill-opacity="0.31"></rect><rect x="1136" y="566" width="14" height="30" rx="7.0" fill="#C45A24" fill-opacity="0.31"></rect><rect x="1160" y="566" width="14" height="30" rx="7.0" fill="#C45A24" fill-opacity="0.31"></rect><rect x="1184" y="566" width="14" height="30" rx="7.0" fill="#C45A24" fill-opacity="0.31"></rect>
<path d="M770 478 Q 980 438 1200 478" fill="none" stroke="#3A1A0E" stroke-width="6"></path>
<g fill="#1E0D08"><path d="M560 520 L640 488 L720 520z"></path><rect x="566" y="520" width="148" height="8"></rect><rect x="572" y="528" width="8" height="64"></rect><rect x="594" y="528" width="8" height="64"></rect><rect x="616" y="528" width="8" height="64"></rect><rect x="656" y="528" width="8" height="64"></rect><rect x="678" y="528" width="8" height="64"></rect><rect x="700" y="528" width="8" height="64"></rect><rect x="560" y="592" width="160" height="10"></rect></g>
<g fill="#140906"><path d="M1240 600 C1230 530 1242 470 1252 440 C1262 470 1274 530 1264 600z"></path><path d="M1282 604 C1274 550 1284 500 1292 476 C1300 500 1310 550 1302 604z"></path><path d="M500 604 C492 556 502 516 510 496 C518 516 528 556 520 604z"></path><path d="M1380 600 C1370 520 1384 460 1394 430 C1404 460 1418 520 1408 600z"></path></g>
<path d="M0 620 C 300 596 700 612 1000 604 S 1300 590 1440 600 V780 H0z" fill="#170B07"></path>
<path d="M19 760 V609" stroke="#0C0605" stroke-width="2"></path><path d="M16 617 L19 605 L22 617z" fill="#0C0605"></path><path d="M29 760 V635" stroke="#0C0605" stroke-width="2"></path><path d="M26 643 L29 631 L32 643z" fill="#0C0605"></path><path d="M46 760 V619" stroke="#0C0605" stroke-width="2"></path><path d="M43 627 L46 615 L49 627z" fill="#0C0605"></path><path d="M54 760 V594" stroke="#0C0605" stroke-width="2"></path><path d="M51 602 L54 590 L57 602z" fill="#0C0605"></path><path d="M65 760 V590" stroke="#0C0605" stroke-width="2"></path><path d="M62 598 L65 586 L68 598z" fill="#0C0605"></path><path d="M82 760 V624" stroke="#0C0605" stroke-width="2"></path><path d="M79 632 L82 620 L85 632z" fill="#0C0605"></path><path d="M92 760 V637" stroke="#0C0605" stroke-width="2"></path><path d="M89 645 L92 633 L95 645z" fill="#0C0605"></path><path d="M100 760 V602" stroke="#0C0605" stroke-width="2"></path><path d="M97 610 L100 598 L103 610z" fill="#0C0605"></path><path d="M120 760 V622" stroke="#0C0605" stroke-width="2"></path><path d="M117 630 L120 618 L123 630z" fill="#0C0605"></path><path d="M129 760 V605" stroke="#0C0605" stroke-width="2"></path><path d="M126 613 L129 601 L132 613z" fill="#0C0605"></path><path d="M138 760 V594" stroke="#0C0605" stroke-width="2"></path><path d="M135 602 L138 590 L141 602z" fill="#0C0605"></path><path d="M152 760 V601" stroke="#0C0605" stroke-width="2"></path><path d="M149 609 L152 597 L155 609z" fill="#0C0605"></path><path d="M160 760 V629" stroke="#0C0605" stroke-width="2"></path><path d="M157 637 L160 625 L163 637z" fill="#0C0605"></path><path d="M176 760 V604" stroke="#0C0605" stroke-width="2"></path><path d="M173 612 L176 600 L179 612z" fill="#0C0605"></path><path d="M187 760 V597" stroke="#0C0605" stroke-width="2"></path><path d="M184 605 L187 593 L190 605z" fill="#0C0605"></path><path d="M200 760 V605" stroke="#0C0605" stroke-width="2"></path><path d="M197 613 L200 601 L203 613z" fill="#0C0605"></path><path d="M213 760 V592" stroke="#0C0605" stroke-width="2"></path><path d="M210 600 L213 588 L216 600z" fill="#0C0605"></path><path d="M225 760 V629" stroke="#0C0605" stroke-width="2"></path><path d="M222 637 L225 625 L228 637z" fill="#0C0605"></path><path d="M238 760 V619" stroke="#0C0605" stroke-width="2"></path><path d="M235 627 L238 615 L241 627z" fill="#0C0605"></path><path d="M247 760 V597" stroke="#0C0605" stroke-width="2"></path><path d="M244 605 L247 593 L250 605z" fill="#0C0605"></path><path d="M259 760 V616" stroke="#0C0605" stroke-width="2"></path><path d="M256 624 L259 612 L262 624z" fill="#0C0605"></path><path d="M272 760 V591" stroke="#0C0605" stroke-width="2"></path><path d="M269 599 L272 587 L275 599z" fill="#0C0605"></path><path d="M288 760 V605" stroke="#0C0605" stroke-width="2"></path><path d="M285 613 L288 601 L291 613z" fill="#0C0605"></path><path d="M292 760 V604" stroke="#0C0605" stroke-width="2"></path><path d="M289 612 L292 600 L295 612z" fill="#0C0605"></path><path d="M308 760 V634" stroke="#0C0605" stroke-width="2"></path><path d="M305 642 L308 630 L311 642z" fill="#0C0605"></path><path d="M324 760 V597" stroke="#0C0605" stroke-width="2"></path><path d="M321 605 L324 593 L327 605z" fill="#0C0605"></path><path d="M334 760 V612" stroke="#0C0605" stroke-width="2"></path><path d="M331 620 L334 608 L337 620z" fill="#0C0605"></path><path d="M344 760 V612" stroke="#0C0605" stroke-width="2"></path><path d="M341 620 L344 608 L347 620z" fill="#0C0605"></path><path d="M359 760 V595" stroke="#0C0605" stroke-width="2"></path><path d="M356 603 L359 591 L362 603z" fill="#0C0605"></path><path d="M367 760 V604" stroke="#0C0605" stroke-width="2"></path><path d="M364 612 L367 600 L370 612z" fill="#0C0605"></path><path d="M380 760 V587" stroke="#0C0605" stroke-width="2"></path><path d="M377 595 L380 583 L383 595z" fill="#0C0605"></path><path d="M389 760 V586" stroke="#0C0605" stroke-width="2"></path><path d="M386 594 L389 582 L392 594z" fill="#0C0605"></path><path d="M407 760 V624" stroke="#0C0605" stroke-width="2"></path><path d="M404 632 L407 620 L410 632z" fill="#0C0605"></path><path d="M416 760 V617" stroke="#0C0605" stroke-width="2"></path><path d="M413 625 L416 613 L419 625z" fill="#0C0605"></path><path d="M432 760 V625" stroke="#0C0605" stroke-width="2"></path><path d="M429 633 L432 621 L435 633z" fill="#0C0605"></path><path d="M443 760 V628" stroke="#0C0605" stroke-width="2"></path><path d="M440 636 L443 624 L446 636z" fill="#0C0605"></path><path d="M453 760 V593" stroke="#0C0605" stroke-width="2"></path><path d="M450 601 L453 589 L456 601z" fill="#0C0605"></path><path d="M463 760 V587" stroke="#0C0605" stroke-width="2"></path><path d="M460 595 L463 583 L466 595z" fill="#0C0605"></path><path d="M478 760 V595" stroke="#0C0605" stroke-width="2"></path><path d="M475 603 L478 591 L481 603z" fill="#0C0605"></path><path d="M491 760 V600" stroke="#0C0605" stroke-width="2"></path><path d="M488 608 L491 596 L494 608z" fill="#0C0605"></path><path d="M498 760 V605" stroke="#0C0605" stroke-width="2"></path><path d="M495 613 L498 601 L501 613z" fill="#0C0605"></path><path d="M514 760 V630" stroke="#0C0605" stroke-width="2"></path><path d="M511 638 L514 626 L517 638z" fill="#0C0605"></path><path d="M525 760 V623" stroke="#0C0605" stroke-width="2"></path><path d="M522 631 L525 619 L528 631z" fill="#0C0605"></path><path d="M540 760 V594" stroke="#0C0605" stroke-width="2"></path><path d="M537 602 L540 590 L543 602z" fill="#0C0605"></path><path d="M549 760 V588" stroke="#0C0605" stroke-width="2"></path><path d="M546 596 L549 584 L552 596z" fill="#0C0605"></path><path d="M556 760 V627" stroke="#0C0605" stroke-width="2"></path><path d="M553 635 L556 623 L559 635z" fill="#0C0605"></path><path d="M571 760 V599" stroke="#0C0605" stroke-width="2"></path><path d="M568 607 L571 595 L574 607z" fill="#0C0605"></path><path d="M583 760 V589" stroke="#0C0605" stroke-width="2"></path><path d="M580 597 L583 585 L586 597z" fill="#0C0605"></path><path d="M597 760 V593" stroke="#0C0605" stroke-width="2"></path><path d="M594 601 L597 589 L600 601z" fill="#0C0605"></path><path d="M608 760 V610" stroke="#0C0605" stroke-width="2"></path><path d="M605 618 L608 606 L611 618z" fill="#0C0605"></path><path d="M616 760 V583" stroke="#0C0605" stroke-width="2"></path><path d="M613 591 L616 579 L619 591z" fill="#0C0605"></path><path d="M633 760 V625" stroke="#0C0605" stroke-width="2"></path><path d="M630 633 L633 621 L636 633z" fill="#0C0605"></path><path d="M641 760 V599" stroke="#0C0605" stroke-width="2"></path><path d="M638 607 L641 595 L644 607z" fill="#0C0605"></path><path d="M657 760 V582" stroke="#0C0605" stroke-width="2"></path><path d="M654 590 L657 578 L660 590z" fill="#0C0605"></path><path d="M669 760 V599" stroke="#0C0605" stroke-width="2"></path><path d="M666 607 L669 595 L672 607z" fill="#0C0605"></path><path d="M681 760 V589" stroke="#0C0605" stroke-width="2"></path><path d="M678 597 L681 585 L684 597z" fill="#0C0605"></path><path d="M694 760 V619" stroke="#0C0605" stroke-width="2"></path><path d="M691 627 L694 615 L697 627z" fill="#0C0605"></path><path d="M701 760 V598" stroke="#0C0605" stroke-width="2"></path><path d="M698 606 L701 594 L704 606z" fill="#0C0605"></path><path d="M715 760 V608" stroke="#0C0605" stroke-width="2"></path><path d="M712 616 L715 604 L718 616z" fill="#0C0605"></path><path d="M728 760 V588" stroke="#0C0605" stroke-width="2"></path><path d="M725 596 L728 584 L731 596z" fill="#0C0605"></path><path d="M740 760 V604" stroke="#0C0605" stroke-width="2"></path><path d="M737 612 L740 600 L743 612z" fill="#0C0605"></path><path d="M750 760 V601" stroke="#0C0605" stroke-width="2"></path><path d="M747 609 L750 597 L753 609z" fill="#0C0605"></path><path d="M760 760 V603" stroke="#0C0605" stroke-width="2"></path><path d="M757 611 L760 599 L763 611z" fill="#0C0605"></path><path d="M772 760 V609" stroke="#0C0605" stroke-width="2"></path><path d="M769 617 L772 605 L775 617z" fill="#0C0605"></path><path d="M786 760 V603" stroke="#0C0605" stroke-width="2"></path><path d="M783 611 L786 599 L789 611z" fill="#0C0605"></path><path d="M801 760 V598" stroke="#0C0605" stroke-width="2"></path><path d="M798 606 L801 594 L804 606z" fill="#0C0605"></path><path d="M809 760 V609" stroke="#0C0605" stroke-width="2"></path><path d="M806 617 L809 605 L812 617z" fill="#0C0605"></path><path d="M823 760 V608" stroke="#0C0605" stroke-width="2"></path><path d="M820 616 L823 604 L826 616z" fill="#0C0605"></path><path d="M835 760 V588" stroke="#0C0605" stroke-width="2"></path><path d="M832 596 L835 584 L838 596z" fill="#0C0605"></path><path d="M844 760 V584" stroke="#0C0605" stroke-width="2"></path><path d="M841 592 L844 580 L847 592z" fill="#0C0605"></path><path d="M856 760 V628" stroke="#0C0605" stroke-width="2"></path><path d="M853 636 L856 624 L859 636z" fill="#0C0605"></path><path d="M870 760 V619" stroke="#0C0605" stroke-width="2"></path><path d="M867 627 L870 615 L873 627z" fill="#0C0605"></path><path d="M882 760 V620" stroke="#0C0605" stroke-width="2"></path><path d="M879 628 L882 616 L885 628z" fill="#0C0605"></path><path d="M892 760 V616" stroke="#0C0605" stroke-width="2"></path><path d="M889 624 L892 612 L895 624z" fill="#0C0605"></path><path d="M911 760 V619" stroke="#0C0605" stroke-width="2"></path><path d="M908 627 L911 615 L914 627z" fill="#0C0605"></path><path d="M919 760 V602" stroke="#0C0605" stroke-width="2"></path><path d="M916 610 L919 598 L922 610z" fill="#0C0605"></path><path d="M928 760 V589" stroke="#0C0605" stroke-width="2"></path><path d="M925 597 L928 585 L931 597z" fill="#0C0605"></path><path d="M948 760 V600" stroke="#0C0605" stroke-width="2"></path><path d="M945 608 L948 596 L951 608z" fill="#0C0605"></path><path d="M958 760 V624" stroke="#0C0605" stroke-width="2"></path><path d="M955 632 L958 620 L961 632z" fill="#0C0605"></path><path d="M967 760 V613" stroke="#0C0605" stroke-width="2"></path><path d="M964 621 L967 609 L970 621z" fill="#0C0605"></path><path d="M979 760 V598" stroke="#0C0605" stroke-width="2"></path><path d="M976 606 L979 594 L982 606z" fill="#0C0605"></path><path d="M995 760 V609" stroke="#0C0605" stroke-width="2"></path><path d="M992 617 L995 605 L998 617z" fill="#0C0605"></path><path d="M1007 760 V585" stroke="#0C0605" stroke-width="2"></path><path d="M1004 593 L1007 581 L1010 593z" fill="#0C0605"></path><path d="M1015 760 V609" stroke="#0C0605" stroke-width="2"></path><path d="M1012 617 L1015 605 L1018 617z" fill="#0C0605"></path><path d="M1031 760 V599" stroke="#0C0605" stroke-width="2"></path><path d="M1028 607 L1031 595 L1034 607z" fill="#0C0605"></path><path d="M1042 760 V597" stroke="#0C0605" stroke-width="2"></path><path d="M1039 605 L1042 593 L1045 605z" fill="#0C0605"></path><path d="M1055 760 V596" stroke="#0C0605" stroke-width="2"></path><path d="M1052 604 L1055 592 L1058 604z" fill="#0C0605"></path><path d="M1060 760 V586" stroke="#0C0605" stroke-width="2"></path><path d="M1057 594 L1060 582 L1063 594z" fill="#0C0605"></path><path d="M1076 760 V600" stroke="#0C0605" stroke-width="2"></path><path d="M1073 608 L1076 596 L1079 608z" fill="#0C0605"></path><path d="M1087 760 V617" stroke="#0C0605" stroke-width="2"></path><path d="M1084 625 L1087 613 L1090 625z" fill="#0C0605"></path><path d="M1099 760 V634" stroke="#0C0605" stroke-width="2"></path><path d="M1096 642 L1099 630 L1102 642z" fill="#0C0605"></path><path d="M1111 760 V611" stroke="#0C0605" stroke-width="2"></path><path d="M1108 619 L1111 607 L1114 619z" fill="#0C0605"></path><path d="M1124 760 V594" stroke="#0C0605" stroke-width="2"></path><path d="M1121 602 L1124 590 L1127 602z" fill="#0C0605"></path><path d="M1137 760 V588" stroke="#0C0605" stroke-width="2"></path><path d="M1134 596 L1137 584 L1140 596z" fill="#0C0605"></path><path d="M1149 760 V621" stroke="#0C0605" stroke-width="2"></path><path d="M1146 629 L1149 617 L1152 629z" fill="#0C0605"></path><path d="M1157 760 V621" stroke="#0C0605" stroke-width="2"></path><path d="M1154 629 L1157 617 L1160 629z" fill="#0C0605"></path><path d="M1174 760 V627" stroke="#0C0605" stroke-width="2"></path><path d="M1171 635 L1174 623 L1177 635z" fill="#0C0605"></path><path d="M1180 760 V617" stroke="#0C0605" stroke-width="2"></path><path d="M1177 625 L1180 613 L1183 625z" fill="#0C0605"></path><path d="M1198 760 V591" stroke="#0C0605" stroke-width="2"></path><path d="M1195 599 L1198 587 L1201 599z" fill="#0C0605"></path><path d="M1210 760 V599" stroke="#0C0605" stroke-width="2"></path><path d="M1207 607 L1210 595 L1213 607z" fill="#0C0605"></path><path d="M1218 760 V607" stroke="#0C0605" stroke-width="2"></path><path d="M1215 615 L1218 603 L1221 615z" fill="#0C0605"></path><path d="M1232 760 V628" stroke="#0C0605" stroke-width="2"></path><path d="M1229 636 L1232 624 L1235 636z" fill="#0C0605"></path><path d="M1247 760 V628" stroke="#0C0605" stroke-width="2"></path><path d="M1244 636 L1247 624 L1250 636z" fill="#0C0605"></path><path d="M1257 760 V613" stroke="#0C0605" stroke-width="2"></path><path d="M1254 621 L1257 609 L1260 621z" fill="#0C0605"></path><path d="M1272 760 V600" stroke="#0C0605" stroke-width="2"></path><path d="M1269 608 L1272 596 L1275 608z" fill="#0C0605"></path><path d="M1280 760 V608" stroke="#0C0605" stroke-width="2"></path><path d="M1277 616 L1280 604 L1283 616z" fill="#0C0605"></path><path d="M1294 760 V618" stroke="#0C0605" stroke-width="2"></path><path d="M1291 626 L1294 614 L1297 626z" fill="#0C0605"></path><path d="M1301 760 V604" stroke="#0C0605" stroke-width="2"></path><path d="M1298 612 L1301 600 L1304 612z" fill="#0C0605"></path><path d="M1315 760 V590" stroke="#0C0605" stroke-width="2"></path><path d="M1312 598 L1315 586 L1318 598z" fill="#0C0605"></path><path d="M1330 760 V627" stroke="#0C0605" stroke-width="2"></path><path d="M1327 635 L1330 623 L1333 635z" fill="#0C0605"></path><path d="M1338 760 V637" stroke="#0C0605" stroke-width="2"></path><path d="M1335 645 L1338 633 L1341 645z" fill="#0C0605"></path><path d="M1352 760 V630" stroke="#0C0605" stroke-width="2"></path><path d="M1349 638 L1352 626 L1355 638z" fill="#0C0605"></path><path d="M1360 760 V598" stroke="#0C0605" stroke-width="2"></path><path d="M1357 606 L1360 594 L1363 606z" fill="#0C0605"></path><path d="M1379 760 V624" stroke="#0C0605" stroke-width="2"></path><path d="M1376 632 L1379 620 L1382 632z" fill="#0C0605"></path><path d="M1391 760 V636" stroke="#0C0605" stroke-width="2"></path><path d="M1388 644 L1391 632 L1394 644z" fill="#0C0605"></path><path d="M1402 760 V613" stroke="#0C0605" stroke-width="2"></path><path d="M1399 621 L1402 609 L1405 621z" fill="#0C0605"></path><path d="M1411 760 V589" stroke="#0C0605" stroke-width="2"></path><path d="M1408 597 L1411 585 L1414 597z" fill="#0C0605"></path><path d="M1423 760 V599" stroke="#0C0605" stroke-width="2"></path><path d="M1420 607 L1423 595 L1426 607z" fill="#0C0605"></path><path d="M1432 760 V628" stroke="#0C0605" stroke-width="2"></path><path d="M1429 636 L1432 624 L1435 636z" fill="#0C0605"></path><path d="M1448 760 V596" stroke="#0C0605" stroke-width="2"></path><path d="M1445 604 L1448 592 L1451 604z" fill="#0C0605"></path>
<g><path d="M1110 760 V560" stroke="#0C0605" stroke-width="4"></path><path d="M1092 570 Q1110 554 1128 570 L1120 564 L1110 572 L1100 564z" fill="#0C0605"></path><rect x="1088" y="582" width="44" height="54" fill="#7A2214" stroke="#C9A15A" stroke-width="2"></rect><path d="M1088 636 l7 10 7-10 8 10 8-10 7 10 7-10" fill="#7A2214" stroke="#C9A15A" stroke-width="1.5"></path><path d="M1086 582 H1134" stroke="#0C0605" stroke-width="4"></path></g><g><path d="M1320 760 V590" stroke="#0C0605" stroke-width="4"></path><path d="M1302 600 Q1320 584 1338 600 L1330 594 L1320 602 L1310 594z" fill="#0C0605"></path><rect x="1298" y="612" width="44" height="54" fill="#7A2214" stroke="#C9A15A" stroke-width="2"></rect><path d="M1298 666 l7 10 7-10 8 10 8-10 7 10 7-10" fill="#7A2214" stroke="#C9A15A" stroke-width="1.5"></path><path d="M1296 612 H1344" stroke="#0C0605" stroke-width="4"></path></g><g><path d="M860 760 V600" stroke="#0C0605" stroke-width="4"></path><path d="M842 610 Q860 594 878 610 L870 604 L860 612 L850 604z" fill="#0C0605"></path><rect x="838" y="622" width="44" height="54" fill="#7A2214" stroke="#C9A15A" stroke-width="2"></rect><path d="M838 676 l7 10 7-10 8 10 8-10 7 10 7-10" fill="#7A2214" stroke="#C9A15A" stroke-width="1.5"></path><path d="M836 622 H884" stroke="#0C0605" stroke-width="4"></path></g>
<rect width="1440" height="780" fill="url(#left)"></rect>
<rect y="520" width="1440" height="260" fill="url(#fade)"></rect>
</svg>